<svg aria-hidden="true" style="position: absolute; width: 0; height: 0; overflow: hidden;" version="1.1" xmlns="http://www.w3.org/2000/svg" xmlns:xlink="http://www.w3.org/1999/xlink">
<defs>
    <symbol id="icon-arrow" viewBox="0 0 36 32">
        <path d="M17.384 2.584c-0.442 0.149-0.813 0.412-1.088 0.755l-0.004 0.005c-0.408 0.556-0.392 0.336-0.392 6.16v5.252l-14.312 0.032-0.336 0.16c-0.441 0.215-0.789 0.563-0.998 0.991l-0.006 0.013c-0.106 0.24-0.168 0.52-0.168 0.814s0.062 0.574 0.173 0.827l-0.005-0.013c0.203 0.401 0.506 0.726 0.878 0.95l0.010 0.006c0.472 0.24 0.632 0.244 7.804 0.244h6.956l0.016 5.356 0.016 5.352 0.16 0.34c0.214 0.44 0.563 0.787 0.991 0.994l0.013 0.006c0.484 0.224 1.16 0.228 1.628 0.004 0.256-0.12 1.896-1.568 7.26-6.404 3.812-3.44 7.016-6.372 7.124-6.524 0.23-0.319 0.368-0.718 0.368-1.149 0-0.166-0.020-0.326-0.059-0.48l0.003 0.014c-0.176-0.644 0.004-0.468-7.248-7.012-3.804-3.436-7.032-6.32-7.164-6.412-0.32-0.211-0.713-0.337-1.135-0.337-0.172 0-0.339 0.021-0.499 0.060l0.014-0.003zM23.208 11.988c1.656 1.496 3.012 2.732 3.012 2.748 0 0.012-1.416 0.024-3.148 0.024h-3.152v-5.708l0.136 0.108c0.076 0.060 1.496 1.332 3.152 2.828zM26.068 18.952c-0.096 0.096-1.448 1.312-2.996 2.708l-2.988 2.688-0.164 0.156v-5.724h6.328l-0.18 0.172z"></path>
    </symbol>
    <symbol id="icon-menu-button" viewBox="0 0 32 32">
        <path d="M30.4 27.2h-14.171c-0.883 0-1.6 0.717-1.6 1.6s0.717 1.6 1.6 1.6h14.171c0.883 0 1.6-0.717 1.6-1.6s-0.717-1.6-1.6-1.6zM1.6 4.8h28.8c0.883 0 1.6-0.717 1.6-1.6s-0.717-1.6-1.6-1.6h-28.8c-0.883 0-1.6 0.717-1.6 1.6s0.717 1.6 1.6 1.6zM30.4 14.4h-21.714c-0.883 0-1.6 0.717-1.6 1.6s0.717 1.6 1.6 1.6h21.714c0.883 0 1.6-0.717 1.6-1.6s-0.717-1.6-1.6-1.6z"></path>
    </symbol>
    <symbol id="icon-arrow3" viewBox="0 0 42 32">
        <path d="M14.934 0.034c-4.699 0.35-8.886 2.621-11.717 6.353-1.619 2.132-2.626 4.568-3.072 7.426-0.162 1.046-0.162 3.33 0 4.376 0.685 4.389 2.806 7.99 6.245 10.599 2.125 1.612 4.573 2.624 7.422 3.069 1.046 0.162 3.33 0.162 4.376 0 3.887-0.606 7.193-2.36 9.672-5.132 2.2-2.456 3.469-5.172 3.995-8.536 0.162-1.046 0.162-3.33 0-4.376-0.445-2.85-1.457-5.297-3.069-7.422-2.646-3.486-6.427-5.681-10.786-6.257-0.625-0.083-2.481-0.143-3.067-0.099zM16.379 9.613c0.104 0.066 1.502 1.305 3.104 2.754 2.311 2.087 2.925 2.671 2.974 2.819 0.081 0.241 0.037 0.611-0.091 0.773-0.113 0.143-5.797 5.288-5.974 5.408-0.34 0.229-0.888 0.103-1.128-0.263l-0.143-0.217-0.017-2.282-0.015-2.282-3.060-0.015c-2.991-0.015-3.064-0.017-3.212-0.125-0.112-0.099-0.205-0.218-0.271-0.352l-0.003-0.007c-0.061-0.104-0.098-0.23-0.098-0.364 0-0.184 0.068-0.352 0.181-0.479l-0.001 0.001c0.275-0.327 0.155-0.317 3.453-0.317h3.016l0.002-2.2c0.003-2.307 0.017-2.459 0.246-2.717 0.155-0.156 0.37-0.252 0.608-0.252 0.158 0 0.307 0.043 0.434 0.118l-0.004-0.002zM16.8 13.467v1.199h1.334c0.733 0 1.332-0.008 1.332-0.020-0.798-0.751-1.656-1.528-2.53-2.288l-0.107-0.091c-0.015 0-0.029 0.541-0.029 1.201zM16.8 17.528v1.209l0.118-0.103c0.165-0.141 2.338-2.092 2.467-2.215 0.103-0.098 0.076-0.099-1.24-0.099h-1.346v1.208z"></path>
    </symbol>
    <symbol id="icon-arrow2" viewBox="0 0 42 32">
        <path d="M15.0384 6.50003H1M9.07688 1L16 6.50003L9.07688 12V1Z"></path>
    </symbol>
    <symbol id="icon-arrow-bg" viewBox="0 0 32 32">
        <path d="M16 32c8.837 0 16-7.163 16-16s-7.163-16-16-16c-8.837 0-16 7.163-16 16s7.163 16 16 16z"></path>
        <path stroke="white" fill="none" stroke-linejoin="round" stroke-linecap="round" stroke-miterlimit="4" stroke-width="1.6842" d="M20.883 15.484h-11.593M15.959 10.322l5.717 5.161-5.717 5.161v-10.322z"></path>
    </symbol>
    <symbol id="icon-facebook" viewBox="0 0 34 32">
        <path d="M32.476 15.637c0-8.635-7.271-15.637-16.238-15.637s-16.238 7.002-16.238 15.637c0 7.804 5.937 14.273 13.701 15.448v-10.926h-4.124v-4.521h4.124v-3.445c0-3.918 2.425-6.084 6.133-6.084 1.777 0 3.636 0.306 3.636 0.306v3.848h-2.049c-2.016 0-2.647 1.205-2.647 2.443v2.932h4.503l-0.719 4.521h-3.783v10.928c7.764-1.174 13.701-7.643 13.701-15.449z"></path>
    </symbol>
    <symbol id="icon-instagram" viewBox="0 0 34 32">
        <path d="M23.004 2.606c1.793 0.005 3.511 0.693 4.779 1.914s1.982 2.875 1.988 4.602v13.030c-0.005 1.726-0.72 3.381-1.988 4.602s-2.986 1.909-4.779 1.914h-13.531c-1.793-0.005-3.511-0.693-4.779-1.914s-1.982-2.875-1.988-4.602v-13.030c0.005-1.726 0.72-3.381 1.988-4.602s2.986-1.909 4.779-1.914h13.531zM23.004 0h-13.531c-5.21 0-9.473 4.105-9.473 9.122v13.030c0 5.017 4.263 9.122 9.473 9.122h13.531c5.21 0 9.473-4.105 9.473-9.122v-13.030c0-5.017-4.262-9.122-9.473-9.122z"></path>
        <path d="M25.033 9.123c-0.402 0-0.794-0.115-1.128-0.329s-0.594-0.52-0.747-0.877-0.194-0.75-0.116-1.129c0.078-0.379 0.272-0.727 0.555-1.001s0.646-0.46 1.039-0.535 0.802-0.037 1.173 0.111c0.371 0.148 0.688 0.398 0.911 0.72s0.342 0.699 0.342 1.086c0 0.257-0.052 0.511-0.153 0.749s-0.251 0.453-0.44 0.635c-0.189 0.182-0.413 0.326-0.659 0.424s-0.511 0.148-0.777 0.148zM16.238 10.426c1.071 0 2.117 0.306 3.007 0.878s1.584 1.387 1.994 2.339c0.41 0.952 0.517 2.001 0.308 3.012s-0.724 1.94-1.481 2.669c-0.757 0.729-1.721 1.225-2.772 1.427s-2.138 0.098-3.127-0.297c-0.989-0.395-1.835-1.063-2.429-1.92s-0.912-1.865-0.912-2.896c0.002-1.382 0.572-2.707 1.587-3.684s2.391-1.527 3.826-1.528zM16.238 7.82c-1.606 0-3.176 0.459-4.511 1.318s-2.376 2.080-2.99 3.509c-0.615 1.429-0.775 3.001-0.462 4.517s1.087 2.91 2.222 4.003 2.582 1.838 4.157 2.14c1.575 0.302 3.207 0.147 4.691-0.445s2.752-1.594 3.644-2.88 1.368-2.797 1.368-4.344c0-2.074-0.855-4.062-2.378-5.528s-3.588-2.29-5.741-2.29z"></path>
    </symbol>
    <symbol id="icon-mail-box" viewBox="0 0 34 32">
        <path d="M7.385 29.538c4.078 0 7.385-3.306 7.385-7.385s-3.306-7.385-7.385-7.385c-4.078 0-7.385 3.306-7.385 7.385s3.306 7.385 7.385 7.385z"></path>
        <path d="M34.462 0h-32v32h32v-32z"></path>
    </symbol>
    <symbol id="icon-pinterest" viewBox="0 0 32 32">
        <path d="M15.675 0c-8.656 0-15.675 7.015-15.675 15.668 0 6.414 3.863 11.926 9.384 14.353-0.042-1.091-0.007-2.406 0.273-3.595 0.301-1.273 2.015-8.54 2.015-8.54s-0.504-1-0.504-2.476c0-2.322 1.344-4.057 3.023-4.057 1.428 0 2.113 1.070 2.113 2.35 0 1.434-0.917 3.574-1.386 5.561-0.392 1.665 0.833 3.015 2.477 3.015 2.967 0 4.968-3.812 4.968-8.33 0-3.434-2.316-6.001-6.522-6.001-4.751 0-7.718 3.546-7.718 7.505 0 1.364 0.406 2.329 1.036 3.071 0.287 0.343 0.329 0.483 0.224 0.874-0.077 0.287-0.245 0.979-0.322 1.259-0.105 0.399-0.427 0.539-0.784 0.392-2.19-0.895-3.212-3.287-3.212-5.987 0-4.448 3.758-9.785 11.203-9.785 5.983 0 9.923 4.33 9.923 8.974 0 6.148-3.422 10.737-8.46 10.737-1.693 0-3.282-0.916-3.828-1.952 0 0-0.91 3.609-1.106 4.309-0.329 1.21-0.98 2.413-1.574 3.357 1.443 0.425 2.939 0.642 4.443 0.644 8.656 0 15.675-7.016 15.675-15.668s-7.012-15.675-15.668-15.675z"></path>
    </symbol>
    <symbol id="icon-plate" viewBox="0 0 37 32">
        <path d="M8.348 22.957c4.61 0 8.348-3.737 8.348-8.348s-3.737-8.348-8.348-8.348c-4.61 0-8.348 3.737-8.348 8.348s3.737 8.348 8.348 8.348z"></path>
        <path d="M36.87 0h-32v32h32v-32z"></path>
    </symbol>
    <symbol id="icon-profile" viewBox="0 0 29 32">
        <path d="M19.706 2.327c-1.347-1.501-3.229-2.327-5.306-2.327-2.088 0-3.976 0.821-5.317 2.313-1.356 1.508-2.016 3.557-1.861 5.77 0.307 4.366 3.527 7.917 7.178 7.917s6.865-3.551 7.177-7.916c0.157-2.193-0.508-4.238-1.871-5.757zM26.584 32h-24.369c-0.319 0.004-0.635-0.065-0.925-0.202s-0.546-0.34-0.751-0.593c-0.45-0.555-0.631-1.313-0.497-2.079 0.584-3.344 2.408-6.154 5.274-8.126 2.546-1.751 5.772-2.714 9.083-2.714s6.537 0.964 9.083 2.714c2.866 1.972 4.689 4.781 5.274 8.125 0.134 0.766-0.047 1.524-0.497 2.079-0.204 0.253-0.461 0.455-0.751 0.593s-0.606 0.207-0.925 0.203z"></path>
    </symbol>
    <symbol id="icon-twitter" viewBox="0 0 40 32">
        <path d="M38.89 3.686c-1.459 0.634-3.002 1.051-4.582 1.24 1.66-0.972 2.908-2.516 3.511-4.343-1.569 0.918-3.283 1.562-5.069 1.904-0.752-0.788-1.656-1.415-2.657-1.842s-2.080-0.647-3.169-0.645c-4.409 0-7.977 3.516-7.977 7.851-0.003 0.603 0.066 1.204 0.206 1.791-3.162-0.148-6.258-0.955-9.090-2.368s-5.338-3.402-7.357-5.839c-0.708 1.194-1.083 2.557-1.085 3.946 0 2.722 1.42 5.129 3.565 6.538-1.271-0.030-2.515-0.366-3.628-0.98v0.097c0 3.808 2.755 6.976 6.401 7.697-0.686 0.183-1.392 0.275-2.102 0.276-0.503 0.001-1.006-0.048-1.5-0.146 1.014 3.119 3.964 5.388 7.458 5.453-2.839 2.188-6.326 3.371-9.91 3.362-0.636-0.001-1.272-0.039-1.904-0.113 3.647 2.329 7.886 3.56 12.213 3.549 14.694 0 22.721-11.967 22.721-22.345 0-0.34-0.009-0.681-0.025-1.013 1.558-1.108 2.906-2.486 3.981-4.067z"></path>
    </symbol>
</defs>
</svg>
